<svg width="209" height="209" viewBox="0 0 209 209" fill="none" xmlns="http://www.w3.org/2000/svg">
<rect x="11.6296" y="11.6298" width="185.741" height="185.741" rx="92.8705" stroke="white" stroke-opacity="0.1" stroke-width="0.863911"/>
<rect x="1.26277" y="1.26228" width="206.475" height="206.475" rx="103.237" stroke="white" stroke-opacity="0.1" stroke-width="0.863911"/>
<g filter="url(#filter0_iiii_1_252)">
<g clip-path="url(#clip0_1_252)">
<rect x="21.5648" y="21.5648" width="165.871" height="165.871" rx="82.9355" fill="#143CAA"/>
<g style="mix-blend-mode:screen" filter="url(#filter1_f_1_252)">
<path d="M69.9438 104.5L192.619 -18.1749L243.59 17.2454L173.613 119.187L192.619 227.176L69.9438 104.5Z" fill="#2D71D1"/>
</g>
<g style="mix-blend-mode:screen" filter="url(#filter2_f_1_252)">
<path d="M29.3184 271.296L-15.5839 103.718L40.5764 77.2867L93.872 188.859L196.896 226.394L29.3184 271.296Z" fill="#050024"/>
</g>
<path d="M114.045 96.9071C114.28 105.496 114.124 131.263 113.85 132.278L132.862 151.368C132.862 138.992 132.862 126.695 132.862 114.436L151.287 132.941C151.287 114.748 151.287 96.6728 151.287 78.6362H132.979V96.9071H114.006H114.045Z" fill="white"/>
<path d="M130.358 75.9034V57.6326C112.324 57.6326 94.2508 57.6326 76.1383 57.6326L94.3681 76.0205C82.1628 76.0205 69.9183 76.0205 57.6738 76.0205L76.5686 95.1112C76.4904 95.0331 76.4122 94.916 76.3339 94.8379C88.3828 94.7208 100.197 94.6037 111.933 94.4866V75.8253H130.319L130.358 75.9034Z" fill="white"/>
</g>
<rect x="21.9967" y="21.9968" width="165.007" height="165.007" rx="82.5035" stroke="white" stroke-opacity="0.4" stroke-width="0.863911" style="mix-blend-mode:soft-light"/>
</g>
<defs>
<filter id="filter0_iiii_1_252" x="21.5648" y="21.5648" width="165.871" height="165.871" filterUnits="userSpaceOnUse" color-interpolation-filters="sRGB">
<feFlood flood-opacity="0" result="BackgroundImageFix"/>
<feBlend mode="normal" in="SourceGraphic" in2="BackgroundImageFix" result="shape"/>
<feColorMatrix in="SourceAlpha" type="matrix" values="0 0 0 0 0 0 0 0 0 0 0 0 0 0 0 0 0 0 127 0" result="hardAlpha"/>
<feOffset/>
<feGaussianBlur stdDeviation="3.45565"/>
<feComposite in2="hardAlpha" operator="arithmetic" k2="-1" k3="1"/>
<feColorMatrix type="matrix" values="0 0 0 0 1 0 0 0 0 1 0 0 0 0 1 0 0 0 0.05 0"/>
<feBlend mode="normal" in2="shape" result="effect1_innerShadow_1_252"/>
<feColorMatrix in="SourceAlpha" type="matrix" values="0 0 0 0 0 0 0 0 0 0 0 0 0 0 0 0 0 0 127 0" result="hardAlpha"/>
<feOffset/>
<feGaussianBlur stdDeviation="6.91129"/>
<feComposite in2="hardAlpha" operator="arithmetic" k2="-1" k3="1"/>
<feColorMatrix type="matrix" values="0 0 0 0 1 0 0 0 0 1 0 0 0 0 1 0 0 0 0.1 0"/>
<feBlend mode="normal" in2="effect1_innerShadow_1_252" result="effect2_innerShadow_1_252"/>
<feColorMatrix in="SourceAlpha" type="matrix" values="0 0 0 0 0 0 0 0 0 0 0 0 0 0 0 0 0 0 127 0" result="hardAlpha"/>
<feOffset/>
<feGaussianBlur stdDeviation="10.3669"/>
<feComposite in2="hardAlpha" operator="arithmetic" k2="-1" k3="1"/>
<feColorMatrix type="matrix" values="0 0 0 0 1 0 0 0 0 1 0 0 0 0 1 0 0 0 0.2 0"/>
<feBlend mode="normal" in2="effect2_innerShadow_1_252" result="effect3_innerShadow_1_252"/>
<feColorMatrix in="SourceAlpha" type="matrix" values="0 0 0 0 0 0 0 0 0 0 0 0 0 0 0 0 0 0 127 0" result="hardAlpha"/>
<feOffset/>
<feGaussianBlur stdDeviation="13.8226"/>
<feComposite in2="hardAlpha" operator="arithmetic" k2="-1" k3="1"/>
<feColorMatrix type="matrix" values="0 0 0 0 1 0 0 0 0 1 0 0 0 0 1 0 0 0 0.3 0"/>
<feBlend mode="normal" in2="effect3_innerShadow_1_252" result="effect4_innerShadow_1_252"/>
</filter>
<filter id="filter1_f_1_252" x="-12.9917" y="-101.11" width="339.517" height="411.222" filterUnits="userSpaceOnUse" color-interpolation-filters="sRGB">
<feFlood flood-opacity="0" result="BackgroundImageFix"/>
<feBlend mode="normal" in="SourceGraphic" in2="BackgroundImageFix" result="shape"/>
<feGaussianBlur stdDeviation="41.4677" result="effect1_foregroundBlur_1_252"/>
</filter>
<filter id="filter2_f_1_252" x="-98.5193" y="-5.64886" width="378.351" height="359.88" filterUnits="userSpaceOnUse" color-interpolation-filters="sRGB">
<feFlood flood-opacity="0" result="BackgroundImageFix"/>
<feBlend mode="normal" in="SourceGraphic" in2="BackgroundImageFix" result="shape"/>
<feGaussianBlur stdDeviation="41.4677" result="effect1_foregroundBlur_1_252"/>
</filter>
<clipPath id="clip0_1_252">
<rect x="21.5648" y="21.5648" width="165.871" height="165.871" rx="82.9355" fill="white"/>
</clipPath>
</defs>
</svg>
