<svg width="88" height="88" viewBox="0 0 88 88" fill="none" xmlns="http://www.w3.org/2000/svg">
<circle cx="44" cy="44" r="43" fill="#080D27" stroke="#334679" stroke-width="2"/>
<circle cx="44" cy="44" r="37" fill="#0C1838"/>
<path fill-rule="evenodd" clip-rule="evenodd" d="M27.3335 31.3333C27.3335 29.1242 29.1244 27.3333 31.3335 27.3333H56.6668C58.876 27.3333 60.6668 29.1242 60.6668 31.3333V53.3333C60.6668 55.5425 58.876 57.3333 56.6668 57.3333H45.2502V59.4166H47.3335C48.0239 59.4166 48.5835 59.9763 48.5835 60.6666C48.5835 61.357 48.0239 61.9166 47.3335 61.9166H44.0017H44.0002H43.9986H40.6668C39.9765 61.9166 39.4168 61.357 39.4168 60.6666C39.4168 59.9763 39.9765 59.4166 40.6668 59.4166H42.7502V57.3333H31.3335C29.1244 57.3333 27.3335 55.5425 27.3335 53.3333V31.3333ZM41.5002 36.9166C40.8098 36.9166 40.2502 37.4763 40.2502 38.1666V39C40.2502 41.5313 38.1981 43.5833 35.6668 43.5833H34.0002C33.3098 43.5833 32.7502 43.0237 32.7502 42.3333C32.7502 41.643 33.3098 41.0833 34.0002 41.0833H35.6668C36.8174 41.0833 37.7502 40.1506 37.7502 39V38.1666C37.7502 36.0956 39.4291 34.4166 41.5002 34.4166C43.5712 34.4166 45.2502 36.0956 45.2502 38.1666V46.5C45.2502 47.1903 45.8098 47.75 46.5002 47.75C47.1905 47.75 47.7502 47.1903 47.7502 46.5V45.6666C47.7502 43.1353 49.8022 41.0833 52.3335 41.0833H54.0002C54.6905 41.0833 55.2502 41.643 55.2502 42.3333C55.2502 43.0237 54.6905 43.5833 54.0002 43.5833H52.3335C51.1829 43.5833 50.2502 44.5161 50.2502 45.6666V46.5C50.2502 48.571 48.5712 50.25 46.5002 50.25C44.4291 50.25 42.7502 48.571 42.7502 46.5V38.1666C42.7502 37.4763 42.1905 36.9166 41.5002 36.9166Z" fill="#EAEDFF"/>
</svg>
