<svg width="88" height="88" viewBox="0 0 88 88" fill="none" xmlns="http://www.w3.org/2000/svg">
<circle cx="44" cy="44" r="43" fill="#080D27" stroke="#334679" stroke-width="2"/>
<circle cx="44" cy="44" r="37" fill="#0C1838"/>
<path fill-rule="evenodd" clip-rule="evenodd" d="M42.3333 29H45.6666C53.9509 29 60.6666 35.7157 60.6666 44C60.6666 52.2843 53.9509 59 45.6666 59H33.9999C30.318 59 27.3333 56.0152 27.3333 52.3333V44C27.3333 35.7157 34.049 29 42.3333 29ZM37.3333 48.5833C36.6429 48.5833 36.0833 48.0237 36.0833 47.3333C36.0833 46.643 36.6429 46.0833 37.3333 46.0833H43.9999C44.6903 46.0833 45.2499 46.643 45.2499 47.3333C45.2499 48.0237 44.6903 48.5833 43.9999 48.5833H37.3333ZM37.3333 41.9167C36.6429 41.9167 36.0833 41.357 36.0833 40.6667C36.0833 39.9763 36.6429 39.4167 37.3333 39.4167H50.6666C51.3569 39.4167 51.9166 39.9763 51.9166 40.6667C51.9166 41.357 51.3569 41.9167 50.6666 41.9167H37.3333Z" fill="#EAEDFF"/>
</svg>
