<svg width="88" height="88" viewBox="0 0 88 88" fill="none" xmlns="http://www.w3.org/2000/svg">
<circle cx="44" cy="44" r="43" fill="#080D27" stroke="#334679" stroke-width="2"/>
<circle cx="44" cy="44" r="37" fill="#0C1838"/>
<path fill-rule="evenodd" clip-rule="evenodd" d="M41.9502 27.794C43.2405 27.1488 44.7593 27.1488 46.0497 27.794L58.2442 33.8913C60.3939 34.9661 60.3939 38.0339 58.2442 39.1088L46.0497 45.206C44.7593 45.8512 43.2405 45.8512 41.9502 45.206L29.7557 39.1088C27.606 38.0339 27.606 34.9661 29.7557 33.8913L41.9502 27.794ZM27.8576 52.6589C28.1379 52.028 28.8766 51.7439 29.5075 52.0243L43.1537 58.0893C43.6924 58.3287 44.3073 58.3287 44.8459 58.0893L58.4921 52.0243C59.123 51.7439 59.8617 52.028 60.1421 52.6589C60.4225 53.2897 60.1384 54.0284 59.5075 54.3088L45.8613 60.3738C44.6762 60.9005 43.3234 60.9005 42.1384 60.3738L28.4922 54.3088C27.8613 54.0284 27.5772 53.2897 27.8576 52.6589ZM29.5075 44.5243C28.8766 44.2439 28.1379 44.528 27.8576 45.1589C27.5772 45.7897 27.8613 46.5284 28.4922 46.8088L42.1384 52.8738C43.3234 53.4005 44.6762 53.4005 45.8613 52.8738L59.5075 46.8088C60.1384 46.5284 60.4225 45.7897 60.1421 45.1589C59.8617 44.528 59.123 44.2439 58.4921 44.5243L44.8459 50.5893C44.3073 50.8287 43.6924 50.8287 43.1537 50.5893L29.5075 44.5243Z" fill="#EAEDFF"/>
</svg>
