<svg width="64" height="64" viewBox="0 0 64 64" fill="none" xmlns="http://www.w3.org/2000/svg">
<rect width="64" height="64" rx="32" fill="#080D27" fill-opacity="0.5"/>
<rect x="1" y="1" width="62" height="62" rx="31" stroke="#1959AD" stroke-opacity="0.25" stroke-width="2"/>
<path d="M40.3303 24.5075C38.7767 23.8032 37.1156 23.2914 35.3789 23C35.1656 23.3736 34.9164 23.8761 34.7446 24.2759C32.8985 24.0069 31.0693 24.0069 29.2572 24.2759C29.0854 23.8761 28.8306 23.3736 28.6154 23C26.8768 23.2914 25.2138 23.8051 23.6602 24.5112C20.5266 29.099 19.6772 33.5729 20.1019 37.9832C22.1803 39.4869 24.1944 40.4004 26.1746 40.9981C26.6635 40.3462 27.0995 39.6532 27.4752 38.9228C26.7598 38.6594 26.0745 38.3344 25.4271 37.9571C25.5988 37.8338 25.7669 37.7049 25.9292 37.5722C29.8782 39.3618 34.1689 39.3618 38.0707 37.5722C38.235 37.7049 38.403 37.8338 38.5728 37.9571C37.9235 38.3362 37.2364 38.6613 36.521 38.9247C36.8966 39.6532 37.3308 40.3481 37.8216 41C39.8036 40.4022 41.8197 39.4888 43.898 37.9832C44.3964 32.8705 43.0467 28.4377 40.3303 24.5075ZM28.0132 35.2709C26.8277 35.2709 25.8556 34.1986 25.8556 32.8929C25.8556 31.5872 26.807 30.5131 28.0132 30.5131C29.2194 30.5131 30.1916 31.5853 30.1708 32.8929C30.1727 34.1986 29.2194 35.2709 28.0132 35.2709ZM35.9867 35.2709C34.8013 35.2709 33.8291 34.1986 33.8291 32.8929C33.8291 31.5872 34.7805 30.5131 35.9867 30.5131C37.193 30.5131 38.1651 31.5853 38.1444 32.8929C38.1444 34.1986 37.193 35.2709 35.9867 35.2709Z" fill="#EAEDFF"/>
</svg>
