<svg width="88" height="88" viewBox="0 0 88 88" fill="none" xmlns="http://www.w3.org/2000/svg">
<circle cx="44" cy="44" r="43" fill="#080D27" stroke="#334679" stroke-width="2"/>
<circle cx="44" cy="44" r="37" fill="#0C1838"/>
<path fill-rule="evenodd" clip-rule="evenodd" d="M55.6161 52.2828C56.1043 51.7946 56.8957 51.7946 57.3839 52.2828L61.5506 56.4495C62.0387 56.9376 62.0387 57.7291 61.5506 58.2172C61.0624 58.7054 60.2709 58.7054 59.7828 58.2172L55.6161 54.0506C55.128 53.5624 55.128 52.771 55.6161 52.2828Z" fill="#EAEDFF"/>
<circle cx="50.6665" cy="47.3334" r="10" fill="#EAEDFF"/>
<path fill-rule="evenodd" clip-rule="evenodd" d="M26.0833 47.3334C26.0833 46.643 26.6429 46.0834 27.3333 46.0834H35.6666C36.3569 46.0834 36.9166 46.643 36.9166 47.3334C36.9166 48.0237 36.3569 48.5834 35.6666 48.5834H27.3333C26.6429 48.5834 26.0833 48.0237 26.0833 47.3334Z" fill="#EAEDFF"/>
<path fill-rule="evenodd" clip-rule="evenodd" d="M26.0833 39C26.0833 38.3096 26.6429 37.75 27.3333 37.75H35.6666C36.3569 37.75 36.9166 38.3096 36.9166 39C36.9166 39.6904 36.3569 40.25 35.6666 40.25H27.3333C26.6429 40.25 26.0833 39.6904 26.0833 39Z" fill="#EAEDFF"/>
<path fill-rule="evenodd" clip-rule="evenodd" d="M26.0833 30.6667C26.0833 29.9763 26.6429 29.4167 27.3333 29.4167H48.9999C49.6903 29.4167 50.2499 29.9763 50.2499 30.6667C50.2499 31.357 49.6903 31.9167 48.9999 31.9167H27.3333C26.6429 31.9167 26.0833 31.357 26.0833 30.6667Z" fill="#EAEDFF"/>
</svg>
