<svg width="64" height="64" viewBox="0 0 64 64" fill="none" xmlns="http://www.w3.org/2000/svg">
<rect width="64" height="64" rx="32" fill="#080D27" fill-opacity="0.5"/>
<rect x="1" y="1" width="62" height="62" rx="31" stroke="#1959AD" stroke-opacity="0.25" stroke-width="2"/>
<path fill-rule="evenodd" clip-rule="evenodd" d="M31.9633 20C25.3578 20 20 25.5072 20 32.2969C20 37.7286 23.4495 42.3305 28.1468 43.9902C28.7339 44.0657 28.9541 43.6885 28.9541 43.3867C28.9541 43.0849 28.9541 42.3305 28.9541 41.2744C25.6514 42.0288 24.9174 39.6147 24.9174 39.6147C24.4037 38.1813 23.5963 37.8041 23.5963 37.8041C22.4954 37.0497 23.6697 37.0497 23.6697 37.0497C24.844 37.1251 25.5046 38.3322 25.5046 38.3322C26.6055 40.2182 28.2936 39.6901 28.9541 39.3883C29.0275 38.5585 29.3945 38.0304 29.6881 37.7286C27.0459 37.4269 24.2569 36.3707 24.2569 31.6179C24.2569 30.26 24.6972 29.2038 25.5046 28.2985C25.4312 28.0722 24.9908 26.7897 25.6514 25.13C25.6514 25.13 26.6789 24.8282 28.9541 26.4125C29.9083 26.1107 30.9358 26.0353 31.9633 26.0353C32.9908 26.0353 34.0183 26.1862 34.9725 26.4125C37.2477 24.8282 38.2752 25.13 38.2752 25.13C38.9358 26.7897 38.4954 28.0722 38.422 28.374C39.156 29.2038 39.6697 30.3354 39.6697 31.6934C39.6697 36.4461 36.8807 37.4269 34.2385 37.7286C34.6789 38.1058 35.0459 38.8603 35.0459 39.9919C35.0459 41.6516 35.0459 42.9341 35.0459 43.3867C35.0459 43.6885 35.2661 44.0657 35.8532 43.9902C40.6239 42.3305 44 37.7286 44 32.2969C43.9266 25.5072 38.5688 20 31.9633 20Z" fill="#EAEDFF"/>
</svg>
