<svg width="42" height="42" viewBox="0 0 42 42" fill="none" xmlns="http://www.w3.org/2000/svg">
<path opacity="0.05" fill-rule="evenodd" clip-rule="evenodd" d="M31 2H11C6.02944 2 2 6.02944 2 11V31C2 35.9706 6.02944 40 11 40H31C35.9706 40 40 35.9706 40 31V11C40 6.02944 35.9706 2 31 2ZM11 0C4.92487 0 0 4.92487 0 11V31C0 37.0751 4.92487 42 11 42H31C37.0751 42 42 37.0751 42 31V11C42 4.92487 37.0751 0 31 0H11Z" fill="#2EF2FF"/>
<path fill-rule="evenodd" clip-rule="evenodd" d="M20.25 14.415C18.131 12.9378 15.1895 12.2651 12.9943 12.0134C11.8964 11.8875 11 12.8178 11 13.9656V25.396C11 26.5438 11.8964 27.4745 12.9943 27.6003C15.1895 27.852 18.131 28.5247 20.25 30.002V14.415ZM21.75 30.002C23.869 28.5247 26.8105 27.852 29.0057 27.6003C30.1036 27.4745 31 26.5438 31 25.396V13.9656C31 12.8178 30.1036 11.8875 29.0057 12.0134C26.8105 12.2651 23.869 12.9378 21.75 14.415V30.002ZM13.2588 17.2175C13.3222 16.8021 13.7054 16.5176 14.1148 16.5819C15.4175 16.7866 16.8847 17.1288 18.2705 17.6726C18.6568 17.8242 18.8489 18.2649 18.6995 18.6569C18.5501 19.0489 18.1158 19.2438 17.7295 19.0922C16.4708 18.5983 15.114 18.2791 13.8852 18.086C13.4759 18.0217 13.1954 17.6329 13.2588 17.2175ZM14.1148 20.6407C13.7054 20.5764 13.3222 20.861 13.2588 21.2763C13.1954 21.6917 13.4759 22.0805 13.8852 22.1449C14.5044 22.2422 15.1581 22.3718 15.8165 22.5404C16.2181 22.6432 16.6259 22.3962 16.7272 21.9886C16.8285 21.5811 16.5851 21.1674 16.1835 21.0645C15.4745 20.883 14.7745 20.7444 14.1148 20.6407Z" fill="white"/>
</svg>
