<svg width="88" height="88" viewBox="0 0 88 88" fill="none" xmlns="http://www.w3.org/2000/svg">
<circle cx="44" cy="44" r="43" fill="#080D27" stroke="#334679" stroke-width="2"/>
<circle cx="44" cy="44" r="37" fill="#0C1838"/>
<path fill-rule="evenodd" clip-rule="evenodd" d="M37.8028 28.8333C37.8028 26.9924 39.2952 25.5 41.1362 25.5H47.8028C49.6438 25.5 51.1362 26.9924 51.1362 28.8333C51.1362 30.6743 49.6438 32.1667 47.8028 32.1667H41.1361C39.2952 32.1667 37.8028 30.6743 37.8028 28.8333ZM35.3028 28.8335H33.4695C31.2603 28.8335 29.4695 30.6243 29.4695 32.8335V54.8335C29.4695 57.0426 31.2603 58.8335 33.4695 58.8335H55.4695C57.6786 58.8335 59.4695 57.0426 59.4695 54.8335V32.8335C59.4695 30.6243 57.6786 28.8335 55.4695 28.8335H53.6362C53.6362 32.0551 51.0245 34.6668 47.8028 34.6668H41.1362C37.9145 34.6668 35.3028 32.0551 35.3028 28.8335ZM40.7195 43.8333C40.7195 41.7623 42.3984 40.0833 44.4695 40.0833C46.5406 40.0833 48.2195 41.7623 48.2195 43.8333C48.2195 45.9044 46.5406 47.5833 44.4695 47.5833C42.3984 47.5833 40.7195 45.9044 40.7195 43.8333ZM44.4695 37.5833C41.0177 37.5833 38.2195 40.3816 38.2195 43.8333C38.2195 47.2851 41.0177 50.0833 44.4695 50.0833C45.7433 50.0833 46.9282 49.7022 47.9162 49.0478L49.4189 50.5506C49.9071 51.0387 50.6985 51.0387 51.1867 50.5506C51.6749 50.0624 51.6749 49.2709 51.1867 48.7828L49.684 47.2801C50.3384 46.292 50.7195 45.1072 50.7195 43.8333C50.7195 40.3816 47.9213 37.5833 44.4695 37.5833Z" fill="#EAEDFF"/>
</svg>
