<svg width="64" height="64" viewBox="0 0 64 64" fill="none" xmlns="http://www.w3.org/2000/svg">
<rect width="64" height="64" rx="32" fill="#080D27" fill-opacity="0.5"/>
<rect x="1" y="1" width="62" height="62" rx="31" stroke="#1959AD" stroke-opacity="0.25" stroke-width="2"/>
<path d="M44 31.8276C44 35.0069 43.4672 37.5858 42.8097 37.5858C42.1522 37.5858 41.6196 35.0076 41.6196 31.8276C41.6196 28.6476 42.1524 26.0693 42.8097 26.0693C43.4669 26.0693 44 28.6473 44 31.8276Z" fill="#EAEDFF"/>
<path d="M40.9628 31.8277C40.9628 35.377 39.4476 38.2554 37.5784 38.2554C35.7092 38.2554 34.194 35.377 34.194 31.8277C34.194 28.2783 35.709 25.3999 37.5782 25.3999C39.4473 25.3999 40.9626 28.2774 40.9626 31.8277" fill="#EAEDFF"/>
<path d="M33.5374 31.8277C33.5374 35.5984 30.5069 38.6552 26.7688 38.6552C23.0307 38.6552 20 35.5977 20 31.8277C20 28.0577 23.0305 25 26.7688 25C30.5072 25 33.5374 28.057 33.5374 31.8277Z" fill="#EAEDFF"/>
</svg>
