<svg width="88" height="88" viewBox="0 0 88 88" fill="none" xmlns="http://www.w3.org/2000/svg">
<circle cx="44" cy="44" r="43" fill="#080D27" stroke="#334679" stroke-width="2"/>
<circle cx="44" cy="44" r="37" fill="#0C1838"/>
<path fill-rule="evenodd" clip-rule="evenodd" d="M57.3332 34C57.3332 32.1591 55.8408 30.6667 53.9998 30.6667H40.6665C38.8256 30.6667 37.3332 32.1591 37.3332 34C37.3332 35.8401 38.8242 37.332 40.664 37.3334L33.9998 37.3334C32.1589 37.3334 30.6665 38.8257 30.6665 40.6667C30.6665 42.5076 32.1589 44 33.9998 44H40.6629C38.8236 44.002 37.3332 45.4936 37.3332 47.3334C37.3332 49.1743 38.8256 50.6667 40.6665 50.6667H35.6665C33.8256 50.6667 32.3332 52.1591 32.3332 54C32.3332 55.841 33.8256 57.3334 35.6665 57.3334L48.9998 57.3334C50.8408 57.3334 52.3332 55.841 52.3332 54C52.3332 52.1591 50.8408 50.6667 48.9998 50.6667H53.9998C55.8408 50.6667 57.3332 49.1743 57.3332 47.3334C57.3332 45.4924 55.8408 44 53.9998 44H47.3363C49.1758 43.9983 50.6665 42.5066 50.6665 40.6667C50.6665 38.8265 49.1753 37.3345 47.3354 37.3334H53.9998C55.8408 37.3334 57.3332 35.841 57.3332 34Z" fill="#EAEDFF"/>
</svg>
