<svg width="386" height="443" viewBox="0 0 386 443" fill="none" xmlns="http://www.w3.org/2000/svg">
<g opacity="0.1">
<path fill-rule="evenodd" clip-rule="evenodd" d="M3.01682 87.7064L191.319 0.904733C192.381 0.414895 193.605 0.414893 194.668 0.904731L382.951 87.6978C384.379 88.3561 385.289 89.8383 385.273 91.4109C383.331 286.586 342.779 348.092 195.173 441.982C193.865 442.814 192.123 442.813 190.817 441.978C44.3611 348.478 1.22773 288.678 0.693862 91.391C0.689635 89.8289 1.59824 88.3604 3.01682 87.7064ZM269.325 187.745C275.023 180.991 274.166 170.896 267.412 165.199C260.658 159.501 250.564 160.357 244.866 167.111L180.314 243.627L139.109 209.438C132.309 203.795 122.222 204.734 116.579 211.534C110.937 218.335 111.875 228.422 118.676 234.064L171.33 277.754C178.514 283.715 189.16 282.768 195.179 275.633L269.325 187.745Z" fill="#2D71D1"/>
</g>
</svg>
