<svg width="88" height="88" viewBox="0 0 88 88" fill="none" xmlns="http://www.w3.org/2000/svg">
<circle cx="44" cy="44" r="43" fill="#080D27" stroke="#334679" stroke-width="2"/>
<circle cx="44" cy="44" r="37" fill="#0C1838"/>
<path fill-rule="evenodd" clip-rule="evenodd" d="M42.4091 29H45.5909C47.3482 29 48.7727 30.3431 48.7727 32C48.7727 33.896 50.8014 35.1015 52.4667 34.195L52.6358 34.1029C54.1577 33.2745 56.1036 33.7661 56.9823 35.201L58.5732 37.799C59.4518 39.2339 58.9304 41.0687 57.4086 41.8971C55.7425 42.8041 55.7425 45.1959 57.4086 46.1029C58.9304 46.9313 59.4518 48.7661 58.5732 50.201L56.9823 52.799C56.1036 54.2339 54.1577 54.7255 52.6358 53.8971L52.4667 53.805C50.8014 52.8985 48.7727 54.104 48.7727 56C48.7727 57.6569 47.3482 59 45.5909 59H42.4091C40.6518 59 39.2273 57.6569 39.2273 56C39.2273 54.104 37.1986 52.8985 35.5333 53.8051L35.3642 53.8971C33.8423 54.7256 31.8964 54.2339 31.0177 52.799L29.4268 50.201C28.5482 48.7661 29.0696 46.9313 30.5914 46.1029C32.2575 45.196 32.2575 42.804 30.5914 41.8971C29.0696 41.0687 28.5482 39.2339 29.4268 37.799L31.0177 35.201C31.8964 33.7661 33.8423 33.2744 35.3642 34.1029L35.5333 34.1949C37.1986 35.1015 39.2273 33.896 39.2273 32C39.2273 30.3431 40.6518 29 42.4091 29ZM44 49C46.7614 49 49 46.7614 49 44C49 41.2386 46.7614 39 44 39C41.2386 39 39 41.2386 39 44C39 46.7614 41.2386 49 44 49Z" fill="#EAEDFF"/>
</svg>
