<svg width="88" height="88" viewBox="0 0 88 88" fill="none" xmlns="http://www.w3.org/2000/svg">
<circle cx="44" cy="44" r="43" fill="#080D27" stroke="#334679" stroke-width="2"/>
<circle cx="44" cy="44" r="37" fill="#0C1838"/>
<path fill-rule="evenodd" clip-rule="evenodd" d="M31.3335 27.3333C29.1244 27.3333 27.3335 29.1242 27.3335 31.3333V56.6666C27.3335 58.8758 29.1244 60.6666 31.3335 60.6666H56.6668C58.876 60.6666 60.6668 58.8758 60.6668 56.6666V31.3333C60.6668 29.1242 58.876 27.3333 56.6668 27.3333H31.3335ZM36.0002 33.25C34.4814 33.25 33.2502 34.4812 33.2502 36V52C33.2502 53.5188 34.4814 54.75 36.0002 54.75H52.0002C53.5189 54.75 54.7502 53.5188 54.7502 52V49C54.7502 48.5858 54.4144 48.25 54.0002 48.25C53.5859 48.25 53.2502 48.5858 53.2502 49V52C53.2502 52.6903 52.6905 53.25 52.0002 53.25H36.0002C35.3098 53.25 34.7502 52.6903 34.7502 52V36C34.7502 35.3096 35.3098 34.75 36.0002 34.75H52.0002C52.6905 34.75 53.2502 35.3096 53.2502 36V39C53.2502 39.4142 53.5859 39.75 54.0002 39.75C54.4144 39.75 54.7502 39.4142 54.7502 39V36C54.7502 34.4812 53.5189 33.25 52.0002 33.25H36.0002ZM46.3857 43.25C46.0671 42.2357 45.1196 41.5 44.0002 41.5C42.6195 41.5 41.5002 42.6193 41.5002 44C41.5002 45.3807 42.6195 46.5 44.0002 46.5C45.1196 46.5 46.0671 45.7643 46.3857 44.75H54.0002C54.4144 44.75 54.7502 44.4142 54.7502 44C54.7502 43.5858 54.4144 43.25 54.0002 43.25H46.3857Z" fill="#EAEDFF"/>
</svg>
