<svg width="88" height="88" viewBox="0 0 88 88" fill="none" xmlns="http://www.w3.org/2000/svg">
<circle cx="44" cy="44" r="43" fill="#080D27" stroke="#334679" stroke-width="2"/>
<circle cx="44" cy="44" r="37" fill="#0C1838"/>
<path fill-rule="evenodd" clip-rule="evenodd" d="M45.6668 29H42.3335C34.0492 29 27.3335 35.7157 27.3335 44V52.3333C27.3335 56.0152 30.3183 59 34.0002 59H45.6668C53.9511 59 60.6668 52.2843 60.6668 44C60.6668 35.7157 53.9511 29 45.6668 29ZM47.3335 40.6667C47.3335 42.5076 45.8411 44 44.0002 44C42.1592 44 40.6668 42.5076 40.6668 40.6667C40.6668 38.8257 42.1592 37.3333 44.0002 37.3333C45.8411 37.3333 47.3335 38.8257 47.3335 40.6667ZM37.5702 49.0225C38.3445 46.5832 40.93 45.6667 44.0002 45.6667C47.0703 45.6667 49.6558 46.5832 50.4302 49.0225C50.7087 49.8998 49.9206 50.6667 49.0002 50.6667H39.0002C38.0797 50.6667 37.2917 49.8998 37.5702 49.0225Z" fill="#EAEDFF"/>
</svg>
