<svg width="64" height="64" viewBox="0 0 64 64" fill="none" xmlns="http://www.w3.org/2000/svg">
<rect width="64" height="64" rx="32" fill="#080D27" fill-opacity="0.5"/>
<rect x="1" y="1" width="62" height="62" rx="31" stroke="#1959AD" stroke-opacity="0.25" stroke-width="2"/>
<path d="M21.6499 30.61C28.0923 27.7875 32.3883 25.9268 34.5378 25.0278C40.675 22.4609 41.9503 22.015 42.7815 22.0001C42.9643 21.9971 43.3731 22.0426 43.6379 22.2587C43.8614 22.4411 43.9229 22.6875 43.9524 22.8605C43.9818 23.0334 44.0185 23.4274 43.9893 23.7353C43.6567 27.2491 42.2177 35.7763 41.4856 39.7118C41.1758 41.3771 40.5658 41.9354 39.9753 41.9901C38.6919 42.1088 37.7174 41.1373 36.4744 40.3179C34.5294 39.0359 33.4305 38.2378 31.5425 36.9867C29.3606 35.5409 30.7751 34.7462 32.0185 33.4476C32.344 33.1077 37.9985 27.9359 38.1079 27.4668C38.1216 27.4081 38.1343 27.1894 38.0051 27.0739C37.8759 26.9584 37.6851 26.9979 37.5475 27.0293C37.3524 27.0738 34.2452 29.139 28.2258 33.2248C27.3439 33.8338 26.545 34.1305 25.8292 34.1149C25.0402 34.0978 23.5223 33.6663 22.394 33.2975C21.01 32.8451 19.91 32.606 20.0058 31.8377C20.0557 31.4375 20.6037 31.0283 21.6499 30.61Z" fill="#EAEDFF"/>
</svg>
