<svg width="88" height="88" viewBox="0 0 88 88" fill="none" xmlns="http://www.w3.org/2000/svg">
<circle cx="44" cy="44" r="43" fill="#080D27" stroke="#334679" stroke-width="2"/>
<circle cx="44" cy="44" r="37" fill="#0C1838"/>
<path fill-rule="evenodd" clip-rule="evenodd" d="M53.9999 44C57.6818 44 60.6666 41.0153 60.6666 37.3334C60.6666 33.6515 57.6818 30.6667 53.9999 30.6667C50.318 30.6667 47.3333 33.6515 47.3333 37.3334C47.3333 41.0153 50.318 44 53.9999 44ZM27.3333 37.3334H30.2482C30.5241 37.3334 30.7971 37.3904 31.0499 37.501L41.1037 41.8996C42.7067 42.6009 43.4439 44.4641 42.7546 46.0724C42.65 46.3165 42.5185 46.5408 42.365 46.7434L46.8885 49.611C48.277 50.3052 49.8081 50.6667 51.3606 50.6667H53.9999C55.8409 50.6667 57.3333 52.1591 57.3333 54C57.3333 55.841 55.8409 57.3334 53.9999 57.3334H40.4808C38.4109 57.3334 36.3694 56.8514 34.518 55.9257L27.3333 52.3334V37.3334Z" fill="#EAEDFF"/>
</svg>
