<svg width="88" height="88" viewBox="0 0 88 88" fill="none" xmlns="http://www.w3.org/2000/svg">
<circle cx="44" cy="44" r="43" fill="#080D27" stroke="#334679" stroke-width="2"/>
<circle cx="44" cy="44" r="37" fill="#0C1838"/>
<path fill-rule="evenodd" clip-rule="evenodd" d="M43.9999 27.3333H33.9999C31.2021 27.3333 28.8069 29.0568 27.8179 31.5H50.182C49.193 29.0568 46.7978 27.3333 43.9999 27.3333ZM60.6666 50.6666H53.9999C52.159 50.6666 50.6666 49.1743 50.6666 47.3333C50.6666 45.4924 52.159 44 53.9999 44H60.6666V50.6666ZM27.3333 34H53.9999C57.6818 34 60.6666 36.9847 60.6666 40.6666V41.5L53.9999 41.5C50.7783 41.5 48.1666 44.1117 48.1666 47.3333C48.1666 50.555 50.7783 53.1666 53.9999 53.1666H60.6666V54C60.6666 57.6819 57.6818 60.6666 53.9999 60.6666H33.9999C30.318 60.6666 27.3333 57.6819 27.3333 54V34Z" fill="#EAEDFF"/>
</svg>
